Coordinates
version=1
nRows=29
nColumns=24
inDegrees=yes

Units are S.I. units (second, meters, Newtons, ...)
Angles are in degrees.

endheader
time	pelvis_tilt	pelvis_list	pelvis_rotation	pelvis_tx	pelvis_ty	pelvis_tz	hip_flexion_r	hip_adduction_r	hip_rotation_r	knee_angle_r	ankle_angle_r	subtalar_angle_r	mtp_angle_r	hip_flexion_l	hip_adduction_l	hip_rotation_l	knee_angle_l	ankle_angle_l	subtalar_angle_l	mtp_angle_l	lumbar_extension	lumbar_bending	lumbar_rotation
      3.91000000	     -1.37396427	      6.48538076	     -2.04784670	     -0.46399022	      0.93463268	      0.24118411	     23.88855733	     -5.56310829	      0.61139500	    -70.03348489	      9.10604000	    -12.08506622	      0.00000000	     14.99966416	     13.56546276	      5.10526557	    -23.64489490	     15.49990733	    -18.27727252	      0.00000000	    -11.65916546	     -8.77858208	     -7.34614910
      3.91500000	     -1.27081144	      6.16774526	     -1.83743369	     -0.45720449	      0.93615299	      0.24089450	     24.34629464	     -5.22969824	      0.57782195	    -69.13376235	      9.57153086	    -11.81293637	      0.00000000	     14.08223023	     13.37526440	      5.81870872	    -23.13063344	     15.42015567	    -18.77336534	      0.00000000	    -11.83651165	     -8.33998618	     -7.48631473
      3.92000000	     -1.18750360	      5.84504342	     -1.62040458	     -0.45044996	      0.93757651	      0.24060304	     24.79415672	     -4.89630232	      0.53006942	    -68.14194324	      9.96448685	    -11.59658094	      0.00000000	     13.19856502	     13.16855809	      6.52816372	    -22.62951342	     15.33389102	    -19.27120233	      0.00000000	    -11.99027092	     -7.89395849	     -7.62469841
      3.92500000	     -1.12431879	      5.52040003	     -1.39429433	     -0.44371487	      0.93887742	      0.24030343	     25.23207999	     -4.57085727	      0.45954633	    -67.06203506	     10.29714944	    -11.45969505	      0.00000000	     12.35189416	     12.94859180	      7.21446150	    -22.14597565	     15.26652911	    -19.77256028	      0.00000000	    -12.11931576	     -7.44359253	     -7.77108017
      3.93000000	     -1.06523986	      5.20694487	     -1.16123550	     -0.43701501	      0.94011357	      0.24003833	     25.64107870	     -4.25179498	      0.40023903	    -65.89190887	     10.55857001	    -11.38609379	      0.00000000	     11.51837103	     12.72742883	      7.92107515	    -21.67049752	     15.16888168	    -20.26001997	      0.00000000	    -12.24686126	     -7.01687914	     -7.93665418
      3.93500000	     -1.02390348	      4.90111484	     -0.92863565	     -0.43032613	      0.94120988	      0.23974497	     26.04072388	     -3.95216790	      0.32707837	    -64.64114597	     10.77654529	    -11.39596448	      0.00000000	     10.72047799	     12.50286382	      8.58491172	    -21.21150333	     15.10697012	    -20.73118631	      0.00000000	    -12.34693958	     -6.58910945	     -8.09855510
      3.94000000	     -1.00360500	      4.60277861	     -0.69381206	     -0.42364023	      0.94217347	      0.23945545	     26.43157288	     -3.66737838	      0.24390068	    -63.30843182	     10.94775598	    -11.48264906	      0.00000000	      9.96021113	     12.27217171	      9.20590087	    -20.76875485	     15.07923011	    -21.17197623	      0.00000000	    -12.41727923	     -6.17112415	     -8.25176610
      3.94500000	     -0.97874953	      4.32685048	     -0.45144629	     -0.41698308	      0.94305865	      0.23921048	     26.78285651	     -3.39809969	      0.18389749	    -61.89366747	     11.07595527	    -11.63458164	      0.00000000	      9.20503746	     12.05270046	      9.84523283	    -20.33790883	     15.03831512	    -21.59251148	      0.00000000	    -12.49781173	     -5.79081172	     -8.44576026
      3.95000000	     -0.96678224	      4.06732149	     -0.21064851	     -0.41032805	      0.94381257	      0.23896556	     27.11855784	     -3.15588496	      0.11656819	    -60.40257372	     11.16865025	    -11.85171676	      0.00000000	      8.47750074	     11.83797416	     10.43932383	    -19.92019807	     15.03128725	    -21.98835024	      0.00000000	    -12.55562147	     -5.43118281	     -8.62878331
      3.95500000	     -0.95959895	      3.82784714	      0.02715656	     -0.40367506	      0.94445150	      0.23870853	     27.42753168	     -2.93861257	      0.06047810	    -58.83596961	     11.23254562	    -12.11738291	      0.00000000	      7.76676939	     11.63556569	     11.01470279	    -19.51659243	     15.04360397	    -22.35982142	      0.00000000	    -12.60344487	     -5.08810440	     -8.81833858
      3.96000000	     -0.96135935	      3.60620365	      0.26460471	     -0.39701670	      0.94497460	      0.23846759	     27.71326805	     -2.74324947	      0.01139459	    -57.19487003	     11.25917485	    -12.42849187	      0.00000000	      7.07589894	     11.44108994	     11.56823407	    -19.12603023	     15.07776002	    -22.70586911	      0.00000000	    -12.63691933	     -4.77025980	     -9.01111425
      3.96500000	     -0.96604365	      3.40384696	      0.50000609	     -0.39034830	      0.94538863	      0.23822256	     27.96870479	     -2.57283508	     -0.02791953	    -55.48118378	     11.25630647	    -12.76754530	      0.00000000	      6.39708006	     11.25924610	     12.10827285	    -18.74872957	     15.12887917	    -23.03426463	      0.00000000	    -12.66192085	     -4.47243179	     -9.20999923
      3.97000000	     -0.96775879	      3.22369298	      0.73331327	     -0.38369496	      0.94569684	      0.23799296	     28.18992492	     -2.43036386	     -0.05907270	    -53.69961579	     11.23662142	    -13.11295762	      0.00000000	      5.72637825	     11.09293056	     12.63623748	    -18.38591619	     15.19160448	    -23.35592462	      0.00000000	    -12.69131651	     -4.20398484	     -9.41524510
      3.97500000	     -0.98636856	      3.06208123	      0.96211161	     -0.37702543	      0.94589387	      0.23778978	     28.39647076	     -2.30835450	     -0.07612454	    -51.85108420	     11.17248996	    -13.45545922	      0.00000000	      5.07960046	     10.93562970	     13.13977510	    -18.03098085	     15.27133922	    -23.64366985	      0.00000000	    -12.69569064	     -3.96224760	     -9.61818095
      3.98000000	     -1.00202188	      2.92074979	      1.18962159	     -0.37035874	      0.94598962	      0.23758495	     28.56794918	     -2.21471848	     -0.08607385	    -49.94066489	     11.09608835	    -13.77432364	      0.00000000	      4.43812193	     10.79405582	     13.63223780	    -17.68865874	     15.36254807	    -23.92501004	      0.00000000	    -12.70287500	     -3.74302292	     -9.82864350
      3.98500000	     -1.06171046	      2.78781478	      1.39138033	     -0.36366170	      0.94591712	      0.23739756	     28.75745483	     -2.13500397	     -0.09634240	    -47.97074035	     11.01675942	    -14.03941744	      0.00000000	      3.86124989	     10.65517321	     14.04994446	    -17.37370196	     15.49764111	    -24.16664399	      0.00000000	    -12.64578409	     -3.53470247	     -9.97596876
      3.99000000	     -1.08924971	      2.68008634	      1.61907658	     -0.35697993	      0.94581546	      0.23721604	     28.87263832	     -2.08799902	     -0.09365433	    -45.94035823	     10.90828262	    -14.26628490	      0.00000000	      3.24760020	     10.53681780	     14.50846400	    -17.05676958	     15.61886290	    -24.41457141	      0.00000000	    -12.63881651	     -3.35930095	    -10.19705921
      3.99500000	     -1.10625597	      2.60197184	      1.84370056	     -0.35030277	      0.94564023	      0.23703546	     28.94726800	     -2.07936806	     -0.08005496	    -43.86622838	     10.80634157	    -14.40171232	      0.00000000	      2.62470089	     10.44330810	     14.94768772	    -16.73940532	     15.73197559	    -24.66093550	      0.00000000	    -12.64569365	     -3.21659389	    -10.41812186
      4.00000000	     -1.12333851	      2.54541021	      2.05467242	     -0.34361018	      0.94538025	      0.23687437	     28.99236356	     -2.09956353	     -0.06923894	    -41.74789615	     10.70680142	    -14.44715213	      0.00000000	      2.00744988	     10.36750813	     15.36024734	    -16.43275098	     15.84816733	    -24.89739910	      0.00000000	    -12.64972483	     -3.10033830	    -10.63458796
      4.00500000	     -1.13901382	      2.50835311	      2.26232719	     -0.33690329	      0.94504081	      0.23671672	     29.00611573	     -2.14693126	     -0.05700627	    -39.59432835	     10.61365278	    -14.39431732	      0.00000000	      1.38966931	     10.30687893	     15.74419613	    -16.12628898	     15.97288830	    -25.12403475	      0.00000000	    -12.65538076	     -3.00528592	    -10.85248139
      4.01000000	     -1.14363260	      2.49623712	      2.45904450	     -0.33018000	      0.94464210	      0.23659153	     28.98291886	     -2.22637649	     -0.05907957	    -37.41475481	     10.52900135	    -14.23737287	      0.00000000	      0.76104978	     10.26539891	     16.09946698	    -15.82229368	     16.09364012	    -25.33665898	      0.00000000	    -12.67321781	     -2.94387965	    -11.07404152
      4.01500000	     -1.11226581	      2.52668745	      2.65150709	     -0.32346564	      0.94421753	      0.23646399	     28.90101216	     -2.35261911	     -0.04508363	    -35.22819091	     10.46829589	    -13.96850176	      0.00000000	      0.08979253	     10.26246745	     16.42668343	    -15.50646326	     16.18529832	    -25.56267858	      0.00000000	    -12.74361634	     -2.92550620	    -11.32245406
      4.02000000	     -1.12386220	      2.55544096	      2.83498559	     -0.31670289	      0.94365943	      0.23636562	     28.84588487	     -2.48742705	     -0.07529774	    -33.03534735	     10.41524448	    -13.59825655	      0.00000000	     -0.52726634	     10.25258980	     16.68839808	    -15.20697760	     16.32517250	    -25.72952937	      0.00000000	    -12.75461185	     -2.91236163	    -11.52655889
      4.02500000	     -1.16537742	      2.58984860	      3.00414253	     -0.30988719	      0.94298553	      0.23628589	     28.81153979	     -2.63561039	     -0.14860180	    -30.85608891	     10.38127241	    -13.12258269	      0.00000000	     -1.10543303	     10.24494272	     16.88090700	    -14.92186995	     16.50804447	    -25.83640365	      0.00000000	    -12.72142177	     -2.90667307	    -11.68504865
      4.03000000	     -1.13110069	      2.66055404	      3.18193343	     -0.30307016	      0.94236617	      0.23624050	     28.68850333	     -2.82566293	     -0.25989734	    -28.70878596	     10.36712364	    -12.55634790	      0.00000000	     -1.77794792	     10.26037951	     17.07270193	    -14.61380831	     16.66113017	    -25.93667629	      0.00000000	    -12.78942684	     -2.94696469	    -11.91805342
      4.03500000	     -1.11484941	      2.73470658	      3.34458683	     -0.29622163	      0.94164569	      0.23619752	     28.58277665	     -3.01995692	     -0.40622629	    -26.60091518	     10.38331776	    -11.90151828	      0.00000000	     -2.41803385	     10.28000273	     17.20623958	    -14.33104198	     16.83942745	    -26.00943235	      0.00000000	    -12.82971526	     -2.98604292	    -12.09967177
      4.04000000	     -1.09114623	      2.82217472	      3.50511866	     -0.28934213	      0.94088700	      0.23620912	     28.47323267	     -3.22632949	     -0.59629912	    -24.55461492	     10.41800986	    -11.17312064	      0.00000000	     -3.06408554	     10.30229244	     17.30193079	    -14.05479610	     17.02744236	    -26.03129553	      0.00000000	    -12.88478545	     -3.04775811	    -12.28529526
      4.04500000	     -1.04065615	      2.91724121	      3.66046795	     -0.28242563	      0.94011354	      0.23623761	     28.34648971	     -3.43989527	     -0.85330645	    -22.58764164	     10.47272593	    -10.37778698	      0.00000000	     -3.74090734	     10.32284496	     17.36739065	    -13.77778485	     17.23199416	    -26.00940115	      0.00000000	    -12.96730784	     -3.11629943	    -12.47626802
      4.05000000	     -0.97894370	      3.01261789	      3.80922960	     -0.27547362	      0.93931022	      0.23630430	     28.22199110	     -3.64679441	     -1.16380292	    -20.71125568	     10.54327631	     -9.53153247	      0.00000000	     -4.42440241	     10.33429488	     17.39947997	    -13.51409829	     17.45523191	    -25.93386939	      0.00000000	    -13.06181087	     -3.18565284	    -12.65712481
